<?xml version="1.0" encoding="utf-8"?>
<!-- Generator: Adobe Illustrator 27.2.0, SVG Export Plug-In . SVG Version: 6.00 Build 0)  -->
<svg version="1.1" id="Calque_1" xmlns="http://www.w3.org/2000/svg" xmlns:xlink="http://www.w3.org/1999/xlink" x="0px" y="0px"
	 viewBox="0 0 394 480.89" style="enable-background:new 0 0 394 480.89;" xml:space="preserve">
<style type="text/css">
	.st0{fill:#FF4755;}
	.st1{fill:#FFE27A;}
	.st2{fill:#F9CF58;}
	.st3{fill:#FC2C3A;}
	.st4{fill:#FFBA57;}
</style>
<g>
	<path class="st0" d="M160.72,428.75c-8.25-8.59-16.27-17.41-25.38-25.14c-0.85-0.72-1.72-1.48-2.39-2.36
		c-1.99-2.59-4.52-3.68-7.76-3.18c-6.06,0.94-12.2,1.46-18.28,1.98c-6.62,0.57-13.19,1.88-19.88,1.77
		c-4.49-0.08-5.87-1.76-4.46-6.05c2.57-7.86,5.27-15.67,7.97-23.48c4.94-14.24,9.93-28.47,14.88-42.7
		c2.04-5.86,4.06-11.72,6.08-17.59c9.58,6.41,19.48,12.2,30.14,16.73c17.39,7.38,35.58,11.08,54.31,12.51
		c-0.06,0.61,0,1.27-0.2,1.84c-9.24,26.67-18.47,53.35-27.8,79.99c-0.73,2.08-1.24,4.47-3.5,5.69
		C163.22,428.75,161.97,428.75,160.72,428.75z"/>
	<path class="st0" d="M293.02,312.75c3.8,8.25,6.23,17,9.24,25.53c6.67,18.9,13.17,37.87,19.72,56.82c1.62,4.69,0.23,6.84-4.64,6.64
		c-9.44-0.4-18.79-1.79-28.17-2.87c-4.27-0.49-8.59-0.54-12.89-0.79c-0.91-0.05-1.69,0.13-2.35,0.83
		c-9.75,10.25-20.81,19.18-30.16,29.85c-1.25,0-2.49,0-3.74,0c-0.44-1.42-1.84-2.1-2.36-3.64c-6.23-18.3-12.64-36.54-18.97-54.81
		c-3.36-9.69-6.65-19.41-9.98-29.11c4.6,0.1,9.07-0.89,13.6-1.42c16.62-1.93,32.37-6.73,47.51-13.78
		C277.95,322.21,285.35,317.26,293.02,312.75z"/>
	<path class="st1" d="M63.59,187.85c-0.9-14.78,1.55-29.15,5.78-43.21c5.95-19.79,16.08-37.26,29.71-52.83
		c10.81-12.35,23.71-21.91,37.95-29.7c13.36-7.31,27.6-12.17,42.78-14.37c8.73-1.27,17.43-2.44,26.24-2.05
		c31.69,1.4,60.3,11.19,84.87,31.68c21.08,17.58,36.09,39.33,44.34,65.56c2.56,8.12,4.09,16.5,5.26,24.99
		c0.74,5.38-0.56,10.83,1.23,16.09c0.44,1.28,0.06,2.72-0.82,3.89c-0.67,0.55-0.54,1.32-0.64,2.06c-1.16,8.46-2.87,16.84-5.48,24.94
		c-2.61,8.1-6.41,15.74-10.61,23.2c-13.73,24.38-32.85,43.27-57.66,56.08c-25.94,13.4-53.48,18.27-82.59,14.22
		c-14.9-2.07-29.13-6.1-42.53-12.82c-17.83-8.95-33.39-20.86-46.02-36.46c-15.57-19.24-26.13-40.7-29.88-65.35
		C65.25,191.84,66.12,189.17,63.59,187.85z M202.63,294.11c62.9-0.04,110.04-50.4,109.67-111.21
		c-0.38-62.76-48.43-109.97-109.41-110.01C139.65,72.84,92.97,122.24,92.91,183.1C92.85,247.07,142.58,294.26,202.63,294.11z"/>
	<path class="st2" d="M63.59,187.85c2.53,1.31,1.65,3.98,1.94,5.9c3.75,24.65,14.31,46.12,29.88,65.35
		c12.63,15.6,28.19,27.51,46.02,36.46c13.39,6.72,27.63,10.75,42.53,12.82c29.1,4.05,56.64-0.82,82.59-14.22
		c24.81-12.81,43.94-31.7,57.66-56.08c4.2-7.46,8-15.1,10.61-23.2c2.61-8.09,4.32-16.48,5.48-24.94c0.1-0.73-0.03-1.51,0.64-2.06
		c0.71,14.1-2.7,27.5-6.83,40.8c-8.13,26.21-23.58,47.32-44.68,64.53c-0.78,0.63-1.55,1.26-1.85,2.27
		c-1.95,0.34-3.26,1.77-4.78,2.81c-29.88,20.42-62.61,28.93-98.72,24.28c-18.48-2.38-35.53-8.53-51.52-17.87
		c-5.03-2.94-9.92-6.14-14.87-9.22c-2.27-3.2-5.65-5.18-8.54-7.69c-9.28-8.06-16.63-17.73-23.44-27.86
		c-5.51-8.2-9.96-17.01-13.3-26.24c-4.11-11.34-7.54-22.91-8.27-35.12C63.93,195.01,63.18,191.46,63.59,187.85z"/>
	<path class="st3" d="M117.68,295.48c4.95,3.08,9.84,6.28,14.87,9.22c15.99,9.35,33.04,15.49,51.52,17.87
		c36.1,4.66,68.84-3.86,98.72-24.28c1.52-1.04,2.84-2.47,4.78-2.81c1.81,5.75,3.63,11.5,5.45,17.26
		c-7.67,4.51-15.07,9.46-23.19,13.24c-15.14,7.05-30.89,11.85-47.51,13.78c-4.53,0.53-9.01,1.51-13.6,1.42
		c-1.54-4.21-3.02-8.44-4.65-12.61c-0.34-0.88-0.34-2.32-1.89-2.31c-1.58,0.01-0.98,1.48-1.38,2.23c-2.16,4.03-2.34,8.82-4.83,12.74
		c-18.74-1.43-36.92-5.13-54.31-12.51C131,324.2,121.1,318.41,111.52,312C113.57,306.49,115.63,300.99,117.68,295.48z"/>
	<path class="st4" d="M202.63,294.11c-60.05,0.15-109.78-47.03-109.72-111.01c0.06-60.86,46.74-110.26,109.98-110.22
		c60.98,0.05,109.03,47.26,109.41,110.01C312.67,243.71,265.53,294.07,202.63,294.11z M195.17,232.68
		c-0.01,3.35-0.04,6.7-0.02,10.05c0.05,7.42,5.24,13.07,12.73,13.91c6.12,0.68,12.53-4.23,14.27-10.66
		c1.13-4.18,0.47-8.37,0.64-12.56c0.01-35.28,0.03-70.57,0.01-105.85c-0.01-8.68-5.92-14.55-14.48-14.57
		c-3.12-0.01-6.24,0.13-9.35-0.03c-6.21-0.31-10.34,2.76-13.36,7.83c-4.45,7.48-8.99,14.9-13.34,22.43
		c-1.14,1.97-3.06,3.74-2.57,6.41c-1.33,0.04-1.49,1.1-1.76,2.05c-1.5,5.15-0.08,9.76,3.51,13.35c3.34,3.35,7.58,4.91,12.59,3.68
		c5.31-1.3,8.19-5.26,11.08-9.32C195.13,183.83,195.15,208.25,195.17,232.68z"/>
	<path class="st1" d="M169.7,149.64c-0.49-2.67,1.44-4.44,2.57-6.41c4.34-7.54,8.89-14.96,13.34-22.43
		c3.02-5.07,7.15-8.14,13.36-7.83c3.11,0.15,6.23,0.02,9.35,0.03c8.56,0.02,14.48,5.89,14.48,14.57c0.03,35.28,0,70.57-0.01,105.85
		c-1.56,0.15-1.7,1.59-2.36,2.57c-4.16,6.28-10.89,8.04-17.8,5.03c-3.88-1.69-5.37-5.21-7.46-8.33
		c-0.02-24.42-0.04-48.85-0.06-73.27c0.01-3.09,0.02-6.18,0.02-9.27c0-0.87,0.03-1.89-0.94-2.21c-0.79-0.26-1.26,0.61-1.79,1.1
		c-1.99,1.82-3.56,4.1-6.29,5.06C179.61,156.37,174.34,154.2,169.7,149.64z"/>
	<path class="st2" d="M195.17,232.68c2.09,3.12,3.58,6.65,7.46,8.33c6.91,3.01,13.64,1.25,17.8-5.03c0.65-0.99,0.8-2.42,2.36-2.57
		c-0.17,4.19,0.48,8.38-0.64,12.56c-1.74,6.43-8.15,11.34-14.27,10.66c-7.49-0.83-12.68-6.49-12.73-13.91
		C195.13,239.37,195.16,236.02,195.17,232.68z"/>
	<path class="st2" d="M169.7,149.64c4.64,4.56,9.9,6.73,16.42,4.44c2.72-0.96,4.3-3.24,6.29-5.06c0.53-0.49,1-1.35,1.79-1.1
		c0.97,0.31,0.94,1.33,0.94,2.21c0,3.09-0.01,6.18-0.02,9.27c-2.89,4.05-5.77,8.01-11.08,9.32c-5.01,1.23-9.25-0.33-12.59-3.68
		c-3.58-3.59-5.01-8.2-3.51-13.35C168.21,150.74,168.37,149.68,169.7,149.64z"/>
</g>
</svg>
